# xmcd
#
# Track frame offsets:
#	150
#	32930
#	50417
#	74772
#	99046
#	131237
#	165134
#	194913
#	219356
#	245686
#	273881
#	291085
#	313508
#	333526
#
# Disc length: 4694 seconds
#
# Revision: 1
# Processed by: cddbd v1.5.2PL0 Copyright (c) Steve Scherf et al.
# Submitted via: audiograbber 1.83.01
#
DISCID=d612540e
DTITLE=Sharam - dubai
DYEAR=1900
DGENRE=
TTITLE0=The Reese Project - Direct Me (Joey Negro Remix)
TTITLE1=Pete Heller pres. Timewarp - Timewarp
TTITLE2=Cedric Gervais feat. Caroline - Spirit In My Life
TTITLE3=Miss Nine -  Everlasting
TTITLE4=Sultan and Ned Sheppard feat. Stereomovers -  Connected (Spider and Legaz R
TTITLE4=emix)
TTITLE5=Simon and Shaker -  Zero
TTITLE6=Suite 117 -  Smaller (Dave Audé Remix)
TTITLE7=Spider and Legaz -  Psych
TTITLE8=Twotrups -  The Cello Track (Dub)
TTITLE9=Armin Van Buuren feat. Nadia Ali - Who Is Watching
TTITLE10=Casa Grande -  El Ayoun
TTITLE11=Felipe and Nicolas Bacher - Manitou
TTITLE12=Acquaviva and Maddox - Feedback (Valentino Kanzyani Earresistable Mix)
TTITLE13=Planet Funk - Everyday
EXTD=
EXTT0=
EXTT1=
EXTT2=
EXTT3=
EXTT4=
EXTT5=
EXTT6=
EXTT7=
EXTT8=
EXTT9=
EXTT10=
EXTT11=
EXTT12=
EXTT13=
PLAYORDER=
